<svg xmlns="http://www.w3.org/2000/svg" width="1200" height="900" viewBox="0 0 1200 900" role="img" aria-labelledby="title desc">
  <title id="title">Braces at First Smile Dental Clinic</title>
  <desc id="desc">Original dental treatment illustration for patient education.</desc>
  <defs>
    <linearGradient id="bg" x1="0" x2="1" y1="0" y2="1"><stop stop-color="#eaf7ff"/><stop offset="1" stop-color="#c9f0f0"/></linearGradient>
    <linearGradient id="tooth" x1="0" x2="1" y1="0" y2="1"><stop stop-color="#ffffff"/><stop offset="1" stop-color="#d9f1ff"/></linearGradient>
    <filter id="shadow" x="-20%" y="-20%" width="140%" height="140%"><feDropShadow dx="0" dy="18" stdDeviation="18" flood-color="#0d5f91" flood-opacity=".22"/></filter>
  </defs>
  <rect width="1200" height="900" rx="58" fill="url(#bg)"/>
  <circle cx="980" cy="160" r="110" fill="#5db656" opacity=".18"/>
  <circle cx="190" cy="720" r="160" fill="#3ea5f5" opacity=".16"/>
  <path d="M484 193c-74 0-132 62-132 146 0 54 30 132 52 214 24 89 37 170 87 170 39 0 59-61 109-151 50 90 70 151 109 151 50 0 63-81 87-170 22-82 52-160 52-214 0-84-58-146-132-146-47 0-75 28-116 28s-69-28-116-28z" fill="url(#tooth)" stroke="#0d5f91" stroke-width="22" filter="url(#shadow)"/>
  <path d="M480 308c32 93 54 172 94 226 17-37 38-82 59-119" fill="none" stroke="#3ea5f5" stroke-width="30" stroke-linecap="round" stroke-linejoin="round" opacity=".9"/>
  <rect x="270" y="662" width="660" height="86" rx="43" fill="#10283d" opacity=".95"/>
  <text x="600" y="715" text-anchor="middle" font-family="Arial, sans-serif" font-size="34" font-weight="800" fill="#ffffff">Braces</text>
  <text x="600" y="790" text-anchor="middle" font-family="Arial, sans-serif" font-size="24" font-weight="700" fill="#0d5f91">First Smile Dental Clinic, Katihar</text>
</svg>